<svg xmlns="http://www.w3.org/2000/svg" viewBox="0 0 240 135" width="240" height="135">
  <defs>
    <linearGradient id="bgbusiness" x1="0%" y1="0%" x2="100%" y2="100%">
      <stop offset="0%" style="stop-color:#2c5282"/>
      <stop offset="100%" style="stop-color:#ed8936"/>
    </linearGradient>
  </defs>
  <!-- 背景 -->
  <rect width="240" height="135" fill="url(#bgbusiness)" rx="6"/>
  <!-- 标题栏 -->
  <rect x="0" y="0" width="240" height="40" fill="rgba(0,0,0,0.25)" rx="6"/>
  <rect x="0" y="34" width="240" height="6" fill="rgba(0,0,0,0.25)"/>
  <!-- 标题文字 -->
  <text x="16" y="26" font-family="Arial,sans-serif" font-size="13" font-weight="bold" fill="#ffffff">商务蓝</text>
  <!-- 内容区域 - 模拟PPT布局 -->
  <!-- 左侧标题 -->
  <rect x="12" y="50" width="60" height="8" fill="rgba(255,255,255,0.7)" rx="2"/>
  <!-- 内容行 -->
  <rect x="12" y="66" width="140" height="5" fill="rgba(255,255,255,0.35)" rx="1"/>
  <rect x="12" y="76" width="120" height="5" fill="rgba(255,255,255,0.35)" rx="1"/>
  <rect x="12" y="86" width="100" height="5" fill="rgba(255,255,255,0.35)" rx="1"/>
  <rect x="12" y="96" width="130" height="5" fill="rgba(255,255,255,0.35)" rx="1"/>
  <!-- 右侧装饰块 -->
  <rect x="165" y="50" width="65" height="55" fill="rgba(255,255,255,0.12)" rx="4"/>
  <rect x="173" y="58" width="49" height="4" fill="rgba(255,255,255,0.3)" rx="1"/>
  <rect x="173" y="68" width="35" height="4" fill="rgba(255,255,255,0.2)" rx="1"/>
  <rect x="173" y="78" width="42" height="4" fill="rgba(255,255,255,0.2)" rx="1"/>
  <rect x="173" y="88" width="28" height="4" fill="rgba(255,255,255,0.2)" rx="1"/>
  <!-- 底部装饰线 -->
  <rect x="12" y="115" width="216" height="2" fill="#ed8936" opacity="0.5" rx="1"/>
</svg>